<?xml version="1.0" encoding="utf-8"?>
<!-- Generator: Adobe Illustrator 21.1.0, SVG Export Plug-In . SVG Version: 6.00 Build 0)  -->
<svg version="1.1"
	 id="svg4619" inkscape:version="0.91 r13725" sodipodi:docname="marker-15.svg" xmlns:cc="http://creativecommons.org/ns#" xmlns:dc="http://purl.org/dc/elements/1.1/" xmlns:inkscape="http://www.inkscape.org/namespaces/inkscape" xmlns:rdf="http://www.w3.org/1999/02/22-rdf-syntax-ns#" xmlns:sodipodi="http://sodipodi.sourceforge.net/DTD/sodipodi-0.dtd" xmlns:svg="http://www.w3.org/2000/svg"
	 xmlns="http://www.w3.org/2000/svg" xmlns:xlink="http://www.w3.org/1999/xlink" x="0px" y="0px" viewBox="0 0 15 15"
	 style="enable-background:new 0 0 15 15;" xml:space="preserve">
<style type="text/css">
	.st0{fill:#00A76D;}
	.st1{fill:#FFFFFF;}
</style>
<path id="path4133" inkscape:connector-curvature="0" class="st0" d="M7.5,0C5,0,2.2,1.5,2.2,5.3c0,2.6,4.1,8.2,5.3,9.7
	c1.1-1.5,5.3-7,5.3-9.7C12.7,1.5,9.9,0,7.5,0z"/>
<path class="st1" d="M7.6,8.5c0.6,0.3,1,0.3,1.3,0.3C9.6,8.7,10.6,9,10.6,9C9.9,8.1,8,8.2,8,8.2c3.3-0.5,4-2.4,4-2.4
	C10.1,6,7.7,8,7.7,8S9,6.6,9.5,5.8c0.4-0.8,1.2-3.3,1.2-3.3c-0.5,0.3-1.3,1.1-2,2.3S7.5,7.6,7.5,7.6S8,5.6,8,4.5S7.5,0.9,7.5,0.9
	S6.9,3.3,6.9,4.5s0.5,3.1,0.5,3.1S6.9,6,6.2,4.8s-1.7-2-1.8-2.3c0,0,0.6,2.5,1,3.4C5.9,6.6,7.2,8,7.2,8S4.8,6,2.9,5.8
	c0,0,0.7,1.9,4,2.4C7,8.2,5,8.1,4.3,9c0,0,0.6-0.2,1.2-0.1c1.3,0.2,1.4,0,1.8-0.4c0,0-0.6,2.3,0.1,2.6c0,0,0.4-0.1,0.4-0.3
	c0,0-0.4-1-0.4-1.5S7.6,8.5,7.6,8.5z"/>
</svg>
